<?xml version="1.0" encoding="UTF-8" ?>
<!DOCTYPE svg PUBLIC "-//W3C//DTD SVG 1.1//EN" "http://www.w3.org/Graphics/SVG/1.1/DTD/svg11.dtd">
<svg width="192pt" height="192pt" viewBox="0 0 192 192" version="1.1" xmlns="http://www.w3.org/2000/svg">
<g id="#0000002c">
<path fill="#000000" opacity="0.17" d=" M 84.21 6.00 C 88.44 5.23 92.75 5.49 97.03 5.46 C 108.05 4.92 118.85 7.98 129.18 11.50 C 140.66 16.17 151.41 22.98 159.92 32.05 C 173.36 44.69 181.96 61.92 185.28 79.98 C 186.66 85.56 186.65 91.32 186.53 97.04 C 187.06 108.32 183.95 119.41 180.19 129.94 C 169.40 156.35 145.70 177.50 117.77 183.99 C 87.64 191.87 53.60 182.46 31.97 159.98 C 16.49 145.08 7.26 124.28 5.47 102.97 C 5.63 95.98 4.88 88.90 6.34 82.00 C 7.82 73.93 10.04 65.95 13.37 58.44 C 23.17 37.35 41.14 20.06 62.82 11.51 C 69.72 8.89 76.92 7.10 84.21 6.00 M 57.70 17.61 C 56.66 18.31 54.63 18.38 54.31 19.69 L 54.04 19.32 C 50.10 21.66 46.44 24.42 42.68 27.04 C 38.90 30.76 34.07 33.44 31.14 38.00 C 27.32 42.59 23.52 47.24 20.48 52.41 C 14.03 63.54 10.32 76.06 8.83 88.79 C 7.59 104.99 10.38 121.58 17.79 136.11 C 31.61 163.73 61.06 182.81 92.03 183.35 C 108.56 183.97 125.22 179.76 139.55 171.51 C 145.66 167.86 150.99 163.13 156.66 158.88 C 162.07 152.83 167.30 146.55 171.55 139.61 C 177.92 128.34 182.09 115.67 183.10 102.78 C 183.51 97.58 183.49 92.33 183.11 87.13 C 181.11 60.40 165.34 35.26 142.50 21.31 C 131.15 14.28 118.06 9.92 104.79 8.89 C 99.64 8.50 94.46 8.50 89.31 8.89 C 78.38 9.72 67.60 12.90 57.70 17.61 Z" />
</g>
<g id="#cee0f4ff">
<path fill="#cee0f4" opacity="1.00" d=" M 57.70 17.61 C 67.60 12.90 78.38 9.72 89.31 8.89 C 94.25 10.65 99.87 10.79 104.79 8.89 C 118.06 9.92 131.15 14.28 142.50 21.31 C 165.34 35.26 181.11 60.40 183.11 87.13 C 181.27 92.12 181.27 97.79 183.10 102.78 C 182.09 115.67 177.92 128.34 171.55 139.61 C 167.30 146.55 162.07 152.83 156.66 158.88 C 155.58 156.25 153.51 154.31 151.29 152.63 C 152.23 151.99 153.18 151.36 154.14 150.74 C 162.68 146.92 165.00 137.03 168.82 129.38 C 169.80 128.10 170.90 126.89 171.57 125.41 C 178.73 108.24 179.40 88.52 173.18 70.95 C 166.87 50.93 152.18 34.08 133.87 24.03 C 132.67 23.13 131.22 23.72 129.91 23.92 C 121.49 19.16 112.41 15.30 102.69 14.39 C 96.76 13.60 90.78 14.13 84.87 14.78 C 85.56 14.28 86.23 13.77 86.90 13.24 C 76.43 13.11 66.15 15.97 57.00 20.97 C 57.23 19.85 57.46 18.73 57.70 17.61 Z" />
</g>
<g id="#fcfdfdfd">
<path fill="#fcfdfd" opacity="1.00" d=" M 89.31 8.89 C 94.46 8.50 99.64 8.50 104.79 8.89 C 99.87 10.79 94.25 10.65 89.31 8.89 Z" />
<path fill="#fcfdfd" opacity="1.00" d=" M 183.10 102.78 C 181.27 97.79 181.27 92.12 183.11 87.13 C 183.49 92.33 183.51 97.58 183.10 102.78 Z" />
</g>
<g id="#b9d1edff">
<path fill="#b9d1ed" opacity="1.00" d=" M 57.00 20.97 C 66.15 15.97 76.43 13.11 86.90 13.24 C 86.23 13.77 85.56 14.28 84.87 14.78 C 72.90 16.74 61.45 22.26 52.78 30.78 C 52.32 31.18 51.42 31.96 50.97 32.36 C 51.69 28.22 52.58 24.03 54.81 20.39 C 54.68 20.22 54.43 19.86 54.31 19.69 C 54.63 18.38 56.66 18.31 57.70 17.61 C 57.46 18.73 57.23 19.85 57.00 20.97 Z" />
</g>
<g id="#feffffff">
<path fill="#feffff" opacity="1.00" d=" M 84.87 14.78 C 90.78 14.13 96.76 13.60 102.69 14.39 C 112.41 15.30 121.49 19.16 129.91 23.92 C 134.71 26.95 139.09 30.67 142.76 35.00 C 135.94 37.12 129.21 33.74 122.56 32.58 C 114.76 31.57 106.89 30.90 99.02 31.20 C 86.77 31.19 74.23 30.83 62.34 34.28 C 59.04 35.09 55.66 35.46 52.34 36.19 C 52.46 34.38 52.62 32.58 52.78 30.78 C 61.45 22.26 72.90 16.74 84.87 14.78 Z" />
</g>
<g id="#f2f7fdff">
<path fill="#f2f7fd" opacity="1.00" d=" M 42.68 27.04 C 46.44 24.42 50.10 21.66 54.04 19.32 L 54.31 19.69 C 54.43 19.86 54.68 20.22 54.81 20.39 C 52.58 24.03 51.69 28.22 50.97 32.36 C 50.24 34.23 50.02 37.35 47.89 37.96 C 45.34 36.14 43.42 33.52 41.89 30.82 C 41.95 29.52 42.37 28.29 42.68 27.04 Z" />
</g>
<g id="#abcbecff">
<path fill="#abcbec" opacity="1.00" d=" M 129.91 23.92 C 131.22 23.72 132.67 23.13 133.87 24.03 C 152.18 34.08 166.87 50.93 173.18 70.95 C 179.40 88.52 178.73 108.24 171.57 125.41 C 170.90 126.89 169.80 128.10 168.82 129.38 C 169.64 125.13 170.83 120.94 171.26 116.62 C 172.98 104.23 173.78 91.40 170.61 79.16 C 167.30 63.93 158.29 50.83 148.29 39.19 C 148.31 39.71 148.35 40.76 148.37 41.29 C 146.46 39.23 144.59 37.13 142.76 35.00 C 139.09 30.67 134.71 26.95 129.91 23.92 Z" />
</g>
<g id="#d1e1f4ff">
<path fill="#d1e1f4" opacity="1.00" d=" M 31.14 38.00 C 34.07 33.44 38.90 30.76 42.68 27.04 C 42.37 28.29 41.95 29.52 41.89 30.82 C 43.42 33.52 45.34 36.14 47.89 37.96 C 50.02 37.35 50.24 34.23 50.97 32.36 C 51.42 31.96 52.32 31.18 52.78 30.78 C 52.62 32.58 52.46 34.38 52.34 36.19 C 49.81 38.37 46.48 39.04 43.49 40.35 C 41.95 38.48 39.26 39.48 37.44 40.34 C 33.88 42.47 31.97 46.39 29.85 49.81 C 29.72 48.23 29.53 46.65 29.34 45.08 C 20.00 56.75 14.17 71.21 12.50 86.05 C 12.10 92.68 12.19 99.34 12.48 105.98 C 15.39 132.73 32.44 157.23 56.03 169.98 C 64.78 174.94 74.60 177.70 84.46 179.36 C 97.92 180.31 111.79 180.09 124.60 175.39 C 129.37 173.55 133.69 169.85 139.09 170.26 L 139.55 171.51 C 125.22 179.76 108.56 183.97 92.03 183.35 C 61.06 182.81 31.61 163.73 17.79 136.11 C 10.38 121.58 7.59 104.99 8.83 88.79 C 10.32 76.06 14.03 63.54 20.48 52.41 C 23.52 47.24 27.32 42.59 31.14 38.00 Z" />
</g>
<g id="#eff1f5ff">
<path fill="#eff1f5" opacity="1.00" d=" M 62.34 34.28 C 74.23 30.83 86.77 31.19 99.02 31.20 C 106.89 30.90 114.76 31.57 122.56 32.58 C 129.21 33.74 135.94 37.12 142.76 35.00 C 144.59 37.13 146.46 39.23 148.37 41.29 C 150.82 44.54 152.78 48.12 154.44 51.82 C 154.28 52.53 153.95 53.96 153.79 54.67 C 141.70 49.03 128.39 46.81 115.14 46.43 C 114.84 49.44 114.57 52.46 114.55 55.48 L 114.35 54.78 C 113.72 50.90 113.72 46.96 113.80 43.04 C 110.67 42.51 107.48 42.39 104.36 43.05 C 104.16 43.89 103.76 45.56 103.55 46.39 C 103.07 44.74 102.52 43.11 102.00 41.46 C 93.34 40.95 84.64 41.19 75.97 41.31 C 67.61 42.18 59.08 42.43 51.02 45.02 C 47.37 46.18 43.75 47.41 40.04 48.36 C 39.97 47.77 39.83 46.58 39.76 45.99 C 40.88 44.03 42.17 42.17 43.49 40.35 C 46.48 39.04 49.81 38.37 52.34 36.19 C 55.66 35.46 59.04 35.09 62.34 34.28 Z" />
</g>
<g id="#99bae4ff">
<path fill="#99bae4" opacity="1.00" d=" M 37.44 40.34 C 39.26 39.48 41.95 38.48 43.49 40.35 C 42.17 42.17 40.88 44.03 39.76 45.99 C 38.62 47.91 37.53 49.86 36.42 51.80 C 30.48 56.64 26.87 63.52 22.04 69.35 C 21.97 61.96 26.96 56.20 29.85 49.81 C 31.97 46.39 33.88 42.47 37.44 40.34 Z" />
</g>
<g id="#7390b5ff">
<path fill="#7390b5" opacity="1.00" d=" M 148.29 39.19 C 158.29 50.83 167.30 63.93 170.61 79.16 C 173.78 91.40 172.98 104.23 171.26 116.62 C 170.75 116.66 169.71 116.73 169.19 116.77 C 171.23 111.02 170.36 104.89 170.36 98.94 C 170.28 94.66 171.42 90.10 169.21 86.13 C 168.81 86.42 168.00 87.01 167.59 87.31 L 166.44 88.17 C 165.56 81.26 164.51 74.22 161.57 67.85 C 161.30 69.39 161.04 70.94 160.78 72.49 L 160.51 73.56 C 160.23 71.29 159.84 69.04 159.38 66.81 C 158.33 61.64 156.67 56.60 154.44 51.82 C 152.78 48.12 150.82 44.54 148.37 41.29 C 148.35 40.76 148.31 39.71 148.29 39.19 Z" />
</g>
<g id="#dee3eaff">
<path fill="#dee3ea" opacity="1.00" d=" M 51.02 45.02 C 59.08 42.43 67.61 42.18 75.97 41.31 C 84.64 41.19 93.34 40.95 102.00 41.46 C 102.52 43.11 103.07 44.74 103.55 46.39 C 103.69 48.43 103.81 50.48 103.84 52.52 C 101.99 52.42 100.07 52.44 98.47 53.52 C 95.45 55.29 92.09 56.30 88.64 56.80 C 89.68 55.76 90.78 54.76 91.73 53.63 C 91.71 52.19 90.04 52.32 89.04 52.04 C 84.71 51.54 80.37 52.29 76.03 52.19 C 64.65 51.97 52.94 52.79 42.37 57.33 C 38.67 58.80 35.78 61.61 32.39 63.59 C 33.50 59.59 34.86 55.65 36.42 51.80 C 37.53 49.86 38.62 47.91 39.76 45.99 C 39.83 46.58 39.97 47.77 40.04 48.36 C 43.75 47.41 47.37 46.18 51.02 45.02 Z" />
</g>
<g id="#ffffffff">
<path fill="#ffffff" opacity="1.00" d=" M 104.36 43.05 C 107.48 42.39 110.67 42.51 113.80 43.04 C 113.72 46.96 113.72 50.90 114.35 54.78 C 114.74 60.48 113.97 66.18 114.48 71.87 C 120.16 67.70 126.70 63.81 134.04 64.33 C 140.14 63.79 145.88 66.66 150.14 70.85 C 153.07 74.54 155.06 78.87 156.25 83.42 C 157.78 90.27 157.60 97.33 156.90 104.27 C 156.37 106.23 155.87 108.20 155.26 110.14 C 152.41 117.59 146.74 124.34 139.01 126.92 C 132.99 129.07 126.34 128.57 120.35 126.61 C 118.38 125.84 116.45 124.96 114.51 124.12 C 114.21 124.74 113.61 125.98 113.31 126.60 C 110.13 126.61 106.95 126.63 103.77 126.57 C 103.85 120.80 103.70 115.03 103.80 109.26 C 104.08 100.61 104.44 91.94 103.71 83.31 C 103.55 77.63 103.80 71.94 103.81 66.26 C 103.86 61.68 103.80 57.10 103.84 52.52 C 103.81 50.48 103.69 48.43 103.55 46.39 C 103.76 45.56 104.16 43.89 104.36 43.05 M 114.31 80.82 C 114.38 82.92 114.45 85.02 114.53 87.12 C 115.17 87.24 116.43 87.49 117.06 87.61 C 116.34 87.58 114.88 87.52 114.15 87.48 L 114.64 88.27 C 114.45 91.43 114.23 94.59 114.42 97.75 C 114.56 103.84 114.14 109.94 114.54 116.02 C 121.01 118.64 128.35 120.54 135.20 118.19 C 141.23 116.20 145.43 110.27 145.84 104.00 L 146.54 103.65 C 146.48 100.32 146.64 96.99 146.54 93.66 C 146.58 92.52 146.59 91.37 146.57 90.23 C 146.08 87.41 145.34 84.64 144.48 81.91 C 142.50 77.46 138.03 74.09 133.04 74.29 C 126.14 73.61 119.76 76.97 114.31 80.82 Z" />
</g>
<g id="#afcaebff">
<path fill="#afcaeb" opacity="1.00" d=" M 12.50 86.05 C 14.17 71.21 20.00 56.75 29.34 45.08 C 29.53 46.65 29.72 48.23 29.85 49.81 C 26.96 56.20 21.97 61.96 22.04 69.35 C 20.48 74.63 19.60 80.08 19.01 85.55 C 17.77 95.86 17.74 106.55 20.57 116.62 C 22.71 125.20 26.69 133.21 31.53 140.56 C 35.61 146.65 41.03 151.67 46.37 156.63 C 50.29 160.29 55.28 162.40 59.68 165.37 C 64.76 168.81 70.65 170.68 76.39 172.68 C 78.55 173.46 80.86 173.55 83.13 173.40 C 88.41 173.05 93.67 173.80 98.95 173.62 C 108.70 173.36 118.36 171.07 127.32 167.25 C 131.50 165.49 135.29 162.97 139.35 160.98 C 139.92 162.46 140.49 163.95 141.05 165.44 C 140.44 167.07 139.72 168.64 139.09 170.26 C 133.69 169.85 129.37 173.55 124.60 175.39 C 111.79 180.09 97.92 180.31 84.46 179.36 C 74.60 177.70 64.78 174.94 56.03 169.98 C 32.44 157.23 15.39 132.73 12.48 105.98 C 12.19 99.34 12.10 92.68 12.50 86.05 Z" />
</g>
<g id="#cfd7e1ff">
<path fill="#cfd7e1" opacity="1.00" d=" M 115.14 46.43 C 128.39 46.81 141.70 49.03 153.79 54.67 C 153.95 53.96 154.28 52.53 154.44 51.82 C 156.67 56.60 158.33 61.64 159.38 66.81 C 159.24 67.55 158.97 69.03 158.83 69.77 C 146.83 60.01 130.56 59.82 115.86 59.46 C 115.41 58.14 114.94 56.83 114.55 55.48 C 114.57 52.46 114.84 49.44 115.14 46.43 Z" />
</g>
<g id="#7a99c0ff">
<path fill="#7a99c0" opacity="1.00" d=" M 22.04 69.35 C 26.87 63.52 30.48 56.64 36.42 51.80 C 34.86 55.65 33.50 59.59 32.39 63.59 C 31.45 66.90 30.87 70.30 30.53 73.72 L 29.97 72.52 C 29.96 70.58 29.97 68.63 29.95 66.68 C 28.10 71.25 27.08 76.10 25.81 80.85 C 23.59 87.70 24.61 94.94 23.88 101.99 C 23.13 108.55 25.03 115.03 26.92 121.24 C 28.56 126.55 32.16 131.05 33.16 136.58 C 31.02 134.43 29.00 132.09 27.75 129.29 C 24.32 121.90 21.25 114.21 20.16 106.08 C 18.98 99.29 19.61 92.38 19.01 85.55 C 19.60 80.08 20.48 74.63 22.04 69.35 Z" />
</g>
<g id="#c7cfdbff">
<path fill="#c7cfdb" opacity="1.00" d=" M 42.37 57.33 C 52.94 52.79 64.65 51.97 76.03 52.19 C 80.37 52.29 84.71 51.54 89.04 52.04 C 90.04 52.32 91.71 52.19 91.73 53.63 C 90.78 54.76 89.68 55.76 88.64 56.80 C 92.09 56.30 95.45 55.29 98.47 53.52 C 100.07 52.44 101.99 52.42 103.84 52.52 C 103.80 57.10 103.86 61.68 103.81 66.26 C 103.43 64.61 102.96 62.99 102.50 61.36 C 95.96 60.78 89.16 61.01 83.31 64.34 C 79.92 65.87 76.05 65.83 72.77 67.64 C 63.39 63.37 51.67 62.74 42.83 68.65 C 42.46 68.39 41.72 67.86 41.35 67.60 C 37.28 69.08 34.01 72.14 31.40 75.52 C 31.10 74.92 30.81 74.32 30.53 73.72 C 30.87 70.30 31.45 66.90 32.39 63.59 C 35.78 61.61 38.67 58.80 42.37 57.33 Z" />
</g>
<g id="#bbc5d5ff">
<path fill="#bbc5d5" opacity="1.00" d=" M 114.35 54.78 L 114.55 55.48 C 114.94 56.83 115.41 58.14 115.86 59.46 C 130.56 59.82 146.83 60.01 158.83 69.77 C 158.97 69.03 159.24 67.55 159.38 66.81 C 159.84 69.04 160.23 71.29 160.51 73.56 C 160.25 74.56 159.96 75.55 159.67 76.54 C 156.97 73.61 153.77 71.21 150.31 69.24 C 150.27 69.64 150.18 70.45 150.14 70.85 C 145.88 66.66 140.14 63.79 134.04 64.33 C 126.70 63.81 120.16 67.70 114.48 71.87 C 113.97 66.18 114.74 60.48 114.35 54.78 Z" />
</g>
<g id="#b3bfd0ff">
<path fill="#b3bfd0" opacity="1.00" d=" M 83.31 64.34 C 89.16 61.01 95.96 60.78 102.50 61.36 C 102.96 62.99 103.43 64.61 103.81 66.26 C 103.80 71.94 103.55 77.63 103.71 83.31 C 102.79 80.97 101.90 78.56 100.39 76.52 C 99.45 75.54 97.93 74.48 96.63 75.49 C 94.02 77.36 91.74 79.71 88.76 81.05 C 88.08 82.62 87.42 84.20 86.68 85.75 C 86.35 85.94 85.70 86.32 85.37 86.51 C 85.26 87.75 85.12 88.99 84.96 90.22 C 84.86 90.95 84.66 92.40 84.56 93.13 L 84.53 93.32 C 84.29 92.72 83.82 91.52 83.58 90.92 C 83.87 84.26 83.62 77.59 84.22 70.95 C 84.49 68.69 83.95 66.48 83.31 64.34 Z" />
</g>
<g id="#e4effbff">
<path fill="#e4effb" opacity="1.00" d=" M 72.77 67.64 C 76.05 65.83 79.92 65.87 83.31 64.34 C 83.95 66.48 84.49 68.69 84.22 70.95 C 83.62 77.59 83.87 84.26 83.58 90.92 C 83.08 94.27 82.70 97.64 82.53 101.03 C 82.24 99.00 81.94 96.98 81.65 94.95 C 79.89 94.95 78.14 94.96 76.39 94.99 C 76.08 97.69 75.75 100.40 75.38 103.10 C 74.78 94.32 75.79 85.31 73.77 76.68 C 67.49 74.43 60.61 72.40 53.95 74.28 C 49.13 75.46 45.38 79.36 43.53 83.86 C 43.42 84.22 43.21 84.92 43.10 85.28 C 42.54 84.39 41.97 83.50 41.41 82.61 C 38.74 82.17 36.09 81.67 33.45 81.10 C 35.42 76.23 38.51 71.73 42.83 68.65 C 51.67 62.74 63.39 63.37 72.77 67.64 Z" />
</g>
<g id="#4f79adff">
<path fill="#4f79ad" opacity="1.00" d=" M 25.81 80.85 C 27.08 76.10 28.10 71.25 29.95 66.68 C 29.97 68.63 29.96 70.58 29.97 72.52 C 29.57 77.86 29.52 83.25 30.50 88.54 C 30.63 93.61 30.42 98.70 30.94 103.76 C 31.39 107.68 32.46 111.51 33.92 115.18 C 32.98 118.90 35.05 122.30 36.45 125.59 C 38.36 129.94 40.96 133.93 43.30 138.06 C 41.79 136.76 40.17 135.60 38.86 134.09 C 31.31 124.25 27.96 111.99 26.15 99.90 C 25.44 93.58 25.87 87.20 25.81 80.85 Z" />
</g>
<g id="#afbed4ff">
<path fill="#afbed4" opacity="1.00" d=" M 31.40 75.52 C 34.01 72.14 37.28 69.08 41.35 67.60 C 41.72 67.86 42.46 68.39 42.83 68.65 C 38.51 71.73 35.42 76.23 33.45 81.10 C 32.44 83.57 31.45 86.05 30.50 88.54 C 29.52 83.25 29.57 77.86 29.97 72.52 L 30.53 73.72 C 30.81 74.32 31.10 74.92 31.40 75.52 Z" />
</g>
<g id="#4a73aaff">
<path fill="#4a73aa" opacity="1.00" d=" M 161.57 67.85 C 164.51 74.22 165.56 81.26 166.44 88.17 C 165.20 92.28 165.92 96.60 165.26 100.78 C 161.92 108.40 160.23 116.64 156.14 123.95 C 154.87 125.15 153.38 126.08 151.74 126.68 C 154.98 120.09 158.16 113.25 159.01 105.87 C 157.70 107.24 156.40 108.62 155.26 110.14 C 155.87 108.20 156.37 106.23 156.90 104.27 C 159.46 98.52 160.64 92.27 161.13 86.02 C 161.35 81.51 161.25 76.98 160.78 72.49 C 161.04 70.94 161.30 69.39 161.57 67.85 Z" />
</g>
<g id="#a8b9d0ff">
<path fill="#a8b9d0" opacity="1.00" d=" M 150.31 69.24 C 153.77 71.21 156.97 73.61 159.67 76.54 C 159.96 75.55 160.25 74.56 160.51 73.56 L 160.78 72.49 C 161.25 76.98 161.35 81.51 161.13 86.02 C 159.60 84.99 157.98 84.07 156.25 83.42 C 155.06 78.87 153.07 74.54 150.14 70.85 C 150.18 70.45 150.27 69.64 150.31 69.24 Z" />
</g>
<g id="#93a6c1ff">
<path fill="#93a6c1" opacity="1.00" d=" M 43.53 83.86 C 45.38 79.36 49.13 75.46 53.95 74.28 C 60.61 72.40 67.49 74.43 73.77 76.68 C 73.72 80.06 73.72 83.44 73.55 86.82 C 70.75 88.33 68.10 90.08 65.51 91.92 C 65.65 92.27 65.92 92.98 66.05 93.33 C 65.28 94.26 64.07 94.62 63.03 95.18 C 63.89 92.11 64.98 89.12 66.06 86.13 C 60.04 85.37 53.98 85.97 47.93 85.81 C 46.20 85.93 44.90 84.69 43.53 83.86 Z" />
</g>
<g id="#94a6c1ff">
<path fill="#94a6c1" opacity="1.00" d=" M 114.31 80.82 C 119.76 76.97 126.14 73.61 133.04 74.29 C 138.03 74.09 142.50 77.46 144.48 81.91 C 143.08 82.72 141.75 83.90 140.03 83.86 C 133.13 84.19 126.19 83.27 119.33 84.40 C 119.27 86.35 119.18 88.31 119.19 90.27 C 118.42 91.81 117.81 93.42 117.32 95.07 C 116.87 92.65 116.11 90.28 114.64 88.27 L 114.15 87.48 C 114.88 87.52 116.34 87.58 117.06 87.61 C 116.43 87.49 115.17 87.24 114.53 87.12 C 114.45 85.02 114.38 82.92 114.31 80.82 Z" />
</g>
<g id="#98a9c2ff">
<path fill="#98a9c2" opacity="1.00" d=" M 96.63 75.49 C 97.93 74.48 99.45 75.54 100.39 76.52 C 101.90 78.56 102.79 80.97 103.71 83.31 C 104.44 91.94 104.08 100.61 103.80 109.26 L 103.73 108.57 C 103.46 107.34 103.17 106.12 102.87 104.89 C 101.52 106.25 100.19 107.61 98.85 108.98 C 98.87 108.30 98.89 106.95 98.90 106.28 C 100.30 105.14 101.71 104.00 103.12 102.87 C 103.20 100.22 103.24 97.58 103.23 94.93 C 103.23 93.18 103.23 91.43 103.20 89.68 C 103.15 87.35 103.12 84.51 100.69 83.33 C 96.12 80.43 90.99 83.99 86.68 85.75 C 87.42 84.20 88.08 82.62 88.76 81.05 C 91.74 79.71 94.02 77.36 96.63 75.49 Z" />
</g>
<g id="#c3dcf7ff">
<path fill="#c3dcf7" opacity="1.00" d=" M 73.77 76.68 C 75.79 85.31 74.78 94.32 75.38 103.10 C 75.75 100.40 76.08 97.69 76.39 94.99 C 78.14 94.96 79.89 94.95 81.65 94.95 C 81.94 96.98 82.24 99.00 82.53 101.03 C 82.70 97.64 83.08 94.27 83.58 90.92 C 83.82 91.52 84.29 92.72 84.53 93.32 C 84.39 101.81 84.06 110.30 84.49 118.78 C 84.25 128.66 84.23 138.54 84.32 148.42 C 80.86 148.50 77.40 148.52 73.94 148.49 L 73.80 148.11 C 73.76 138.92 73.77 129.74 73.69 120.55 C 68.20 125.13 61.42 128.83 54.05 128.38 C 48.24 128.80 42.80 125.95 38.62 122.13 C 36.88 119.94 35.30 117.61 33.92 115.18 C 32.46 111.51 31.39 107.68 30.94 103.76 C 31.39 103.63 32.30 103.39 32.75 103.27 C 34.35 106.66 35.54 110.42 38.17 113.19 C 39.80 113.61 41.50 113.39 43.16 113.39 C 43.42 112.81 43.92 111.64 44.17 111.06 C 45.41 112.98 46.73 115.05 48.90 116.01 C 56.87 121.00 66.31 116.76 73.20 111.95 C 74.63 106.01 73.25 99.78 73.69 93.71 C 73.69 91.53 73.62 89.34 73.55 87.16 C 70.63 88.65 67.99 90.67 66.05 93.33 C 65.92 92.98 65.65 92.27 65.51 91.92 C 68.10 90.08 70.75 88.33 73.55 86.82 C 73.72 83.44 73.72 80.06 73.77 76.68 Z" />
</g>
<g id="#5989c9ff">
<path fill="#5989c9" opacity="1.00" d=" M 23.88 101.99 C 24.61 94.94 23.59 87.70 25.81 80.85 C 25.87 87.20 25.44 93.58 26.15 99.90 C 27.96 111.99 31.31 124.25 38.86 134.09 C 40.17 135.60 41.79 136.76 43.30 138.06 C 53.95 150.17 69.09 158.51 85.16 160.50 C 95.64 160.89 106.46 161.71 116.60 158.44 C 128.82 154.71 140.44 147.96 148.56 137.96 C 154.38 135.35 157.07 129.32 161.33 124.97 C 159.31 130.57 157.28 136.27 153.73 141.12 C 138.28 156.40 116.71 165.52 94.95 165.36 C 83.86 165.29 73.18 162.06 62.95 158.05 C 51.64 153.07 41.73 145.41 33.16 136.58 C 32.16 131.05 28.56 126.55 26.92 121.24 C 25.03 115.03 23.13 108.55 23.88 101.99 Z" />
</g>
<g id="#d2e5f9ff">
<path fill="#d2e5f9" opacity="1.00" d=" M 30.50 88.54 C 31.45 86.05 32.44 83.57 33.45 81.10 C 36.09 81.67 38.74 82.17 41.41 82.61 C 41.97 83.50 42.54 84.39 43.10 85.28 C 41.18 91.77 40.83 98.76 42.31 105.38 C 42.74 107.33 43.40 109.22 44.17 111.06 C 43.92 111.64 43.42 112.81 43.16 113.39 C 41.50 113.39 39.80 113.61 38.17 113.19 C 35.54 110.42 34.35 106.66 32.75 103.27 C 32.30 103.39 31.39 103.63 30.94 103.76 C 30.42 98.70 30.63 93.61 30.50 88.54 Z" />
</g>
<g id="#869cbbff">
<path fill="#869cbb" opacity="1.00" d=" M 86.68 85.75 C 90.99 83.99 96.12 80.43 100.69 83.33 C 103.12 84.51 103.15 87.35 103.20 89.68 C 97.15 88.59 90.95 88.88 84.96 90.22 C 85.12 88.99 85.26 87.75 85.37 86.51 C 85.70 86.32 86.35 85.94 86.68 85.75 Z" />
</g>
<g id="#8399baff">
<path fill="#8399ba" opacity="1.00" d=" M 140.03 83.86 C 141.75 83.90 143.08 82.72 144.48 81.91 C 145.34 84.64 146.08 87.41 146.57 90.23 C 139.01 92.20 131.15 89.85 123.62 91.68 C 124.56 93.76 125.81 95.74 126.34 97.97 C 126.27 100.28 125.61 102.53 125.39 104.84 C 124.63 104.18 123.80 103.63 122.90 103.19 C 122.71 101.58 122.44 99.98 122.15 98.39 C 123.40 98.55 124.67 98.54 125.93 98.52 C 123.90 97.01 121.77 95.64 119.63 94.29 C 119.47 92.95 119.31 91.61 119.19 90.27 C 119.18 88.31 119.27 86.35 119.33 84.40 C 126.19 83.27 133.13 84.19 140.03 83.86 M 124.15 100.43 C 122.50 103.36 127.46 100.71 124.15 100.43 Z" />
</g>
<g id="#90a7c6ff">
<path fill="#90a7c6" opacity="1.00" d=" M 156.25 83.42 C 157.98 84.07 159.60 84.99 161.13 86.02 C 160.64 92.27 159.46 98.52 156.90 104.27 C 157.60 97.33 157.78 90.27 156.25 83.42 Z" />
</g>
<g id="#7f96b9ff">
<path fill="#7f96b9" opacity="1.00" d=" M 43.10 85.28 C 43.21 84.92 43.42 84.22 43.53 83.86 C 44.90 84.69 46.20 85.93 47.93 85.81 C 53.98 85.97 60.04 85.37 66.06 86.13 C 64.98 89.12 63.89 92.11 63.03 95.18 C 64.07 94.62 65.28 94.26 66.05 93.33 C 67.99 90.67 70.63 88.65 73.55 87.16 C 73.62 89.34 73.69 91.53 73.69 93.71 C 70.87 95.21 68.09 97.08 64.86 97.54 C 61.98 97.93 59.09 98.28 56.30 99.11 C 56.42 100.97 56.53 102.83 56.64 104.70 C 55.52 105.66 54.40 106.63 53.29 107.60 C 53.62 105.52 55.30 103.05 53.74 101.12 C 51.05 97.95 47.12 96.18 43.17 95.13 C 42.88 98.55 42.52 101.96 42.31 105.38 C 40.83 98.76 41.18 91.77 43.10 85.28 M 50.84 94.09 C 51.24 95.57 51.85 97.07 53.31 97.79 C 55.00 96.25 57.16 95.46 59.13 94.38 C 56.40 93.81 53.60 93.80 50.84 94.09 Z" />
</g>
<g id="#82abdeff">
<path fill="#82abde" opacity="1.00" d=" M 20.57 116.62 C 17.74 106.55 17.77 95.86 19.01 85.55 C 19.61 92.38 18.98 99.29 20.16 106.08 C 21.25 114.21 24.32 121.90 27.75 129.29 C 29.00 132.09 31.02 134.43 33.16 136.58 C 41.73 145.41 51.64 153.07 62.95 158.05 C 73.18 162.06 83.86 165.29 94.95 165.36 C 116.71 165.52 138.28 156.40 153.73 141.12 L 155.36 140.85 C 152.65 144.30 149.62 147.48 146.30 150.35 C 142.84 154.62 142.77 160.43 141.05 165.44 C 140.49 163.95 139.92 162.46 139.35 160.98 C 135.29 162.97 131.50 165.49 127.32 167.25 C 118.36 171.07 108.70 173.36 98.95 173.62 C 93.67 173.80 88.41 173.05 83.13 173.40 C 80.86 173.55 78.55 173.46 76.39 172.68 C 70.65 170.68 64.76 168.81 59.68 165.37 C 55.28 162.40 50.29 160.29 46.37 156.63 C 41.03 151.67 35.61 146.65 31.53 140.56 C 26.69 133.21 22.71 125.20 20.57 116.62 Z" />
</g>
<g id="#759bccff">
<path fill="#759bcc" opacity="1.00" d=" M 167.59 87.31 C 168.00 87.01 168.81 86.42 169.21 86.13 C 171.42 90.10 170.28 94.66 170.36 98.94 C 170.36 104.89 171.23 111.02 169.19 116.77 C 167.52 121.40 166.26 126.27 163.52 130.44 C 161.10 134.13 158.34 137.59 155.36 140.85 L 153.73 141.12 C 157.28 136.27 159.31 130.57 161.33 124.97 C 166.71 113.29 169.37 100.12 167.59 87.31 Z" />
</g>
<g id="#5883bcff">
<path fill="#5883bc" opacity="1.00" d=" M 166.44 88.17 L 167.59 87.31 C 169.37 100.12 166.71 113.29 161.33 124.97 C 157.07 129.32 154.38 135.35 148.56 137.96 C 151.49 133.52 154.41 129.02 156.14 123.95 C 160.23 116.64 161.92 108.40 165.26 100.78 C 165.92 96.60 165.20 92.28 166.44 88.17 Z" />
</g>
<g id="#7891b6ff">
<path fill="#7891b6" opacity="1.00" d=" M 84.96 90.22 C 90.95 88.88 97.15 88.59 103.20 89.68 C 103.23 91.43 103.23 93.18 103.23 94.93 C 97.06 94.48 90.32 96.44 84.60 93.45 L 84.56 93.13 C 84.66 92.40 84.86 90.95 84.96 90.22 Z" />
</g>
<g id="#738db5ff">
<path fill="#738db5" opacity="1.00" d=" M 114.64 88.27 C 116.11 90.28 116.87 92.65 117.32 95.07 C 118.91 96.21 120.50 97.33 122.15 98.39 C 122.44 99.98 122.71 101.58 122.90 103.19 C 122.77 104.95 123.47 107.00 125.57 106.95 C 125.52 106.42 125.43 105.36 125.39 104.84 C 125.61 102.53 126.27 100.28 126.34 97.97 C 125.81 95.74 124.56 93.76 123.62 91.68 C 131.15 89.85 139.01 92.20 146.57 90.23 C 146.59 91.37 146.58 92.52 146.54 93.66 C 145.83 95.00 145.12 96.37 144.15 97.55 C 139.48 98.97 134.24 96.79 129.71 98.79 C 126.39 102.04 129.25 107.26 128.64 111.35 C 126.04 114.38 122.16 116.12 118.16 115.42 C 120.67 113.87 123.20 112.35 125.70 110.78 C 121.19 107.15 118.16 102.10 114.42 97.75 C 114.23 94.59 114.45 91.43 114.64 88.27 M 127.20 107.38 C 125.70 110.38 130.53 107.49 127.20 107.38 Z" />
</g>
<g id="#a8bcd7ff">
<path fill="#a8bcd7" opacity="1.00" d=" M 117.32 95.07 C 117.81 93.42 118.42 91.81 119.19 90.27 C 119.31 91.61 119.47 92.95 119.63 94.29 C 121.77 95.64 123.90 97.01 125.93 98.52 C 124.67 98.54 123.40 98.55 122.15 98.39 C 120.50 97.33 118.91 96.21 117.32 95.07 Z" />
</g>
<g id="#5579aeff">
<path fill="#5579ae" opacity="1.00" d=" M 84.53 93.32 L 84.56 93.13 L 84.60 93.45 C 85.05 96.19 84.79 99.23 86.24 101.71 C 89.73 102.58 93.38 102.21 96.94 102.32 C 96.48 107.04 94.96 111.57 94.55 116.30 C 95.24 116.27 96.61 116.22 97.30 116.19 C 97.17 115.56 96.92 114.29 96.79 113.66 C 97.85 112.98 98.90 112.28 99.93 111.54 C 101.23 110.60 102.47 109.58 103.73 108.57 C 103.30 110.20 103.08 111.91 102.35 113.44 C 100.65 115.66 97.83 116.96 96.80 119.68 C 95.85 121.87 95.14 124.15 94.43 126.43 C 94.34 126.79 94.14 127.50 94.04 127.86 C 95.38 129.28 96.80 130.62 98.18 132.00 C 93.03 130.39 88.21 127.21 85.04 122.80 C 84.85 121.46 84.67 120.12 84.49 118.78 C 84.06 110.30 84.39 101.81 84.53 93.32 M 87.31 118.02 C 87.57 119.33 88.31 119.56 89.53 118.69 C 89.27 117.37 88.53 117.14 87.31 118.02 M 89.28 120.28 C 89.81 120.79 89.81 120.79 89.28 120.28 M 89.21 122.47 C 88.17 124.03 90.40 126.25 92.00 125.70 C 92.42 124.33 90.70 121.99 89.21 122.47 Z" />
</g>
<g id="#96accbff">
<path fill="#96accb" opacity="1.00" d=" M 50.84 94.09 C 53.60 93.80 56.40 93.81 59.13 94.38 C 57.16 95.46 55.00 96.25 53.31 97.79 C 51.85 97.07 51.24 95.57 50.84 94.09 Z" />
</g>
<g id="#6483b1ff">
<path fill="#6483b1" opacity="1.00" d=" M 64.86 97.54 C 68.09 97.08 70.87 95.21 73.69 93.71 C 73.25 99.78 74.63 106.01 73.20 111.95 C 73.02 109.22 72.93 106.48 72.91 103.74 C 67.90 106.60 61.14 103.31 56.90 107.94 C 54.24 109.50 54.30 112.54 54.71 115.21 C 52.78 115.49 50.84 115.78 48.90 116.01 C 46.73 115.05 45.41 112.98 44.17 111.06 C 43.40 109.22 42.74 107.33 42.31 105.38 C 42.52 101.96 42.88 98.55 43.17 95.13 C 47.12 96.18 51.05 97.95 53.74 101.12 C 55.30 103.05 53.62 105.52 53.29 107.60 C 54.40 106.63 55.52 105.66 56.64 104.70 C 56.53 102.83 56.42 100.97 56.30 99.11 C 59.09 98.28 61.98 97.93 64.86 97.54 M 51.14 108.38 C 50.24 109.59 50.46 110.30 51.80 110.51 C 52.71 109.29 52.49 108.59 51.14 108.38 Z" />
</g>
<g id="#6a87b2ff">
<path fill="#6a87b2" opacity="1.00" d=" M 84.60 93.45 C 90.32 96.44 97.06 94.48 103.23 94.93 C 103.24 97.58 103.20 100.22 103.12 102.87 C 101.71 104.00 100.30 105.14 98.90 106.28 C 98.89 106.95 98.87 108.30 98.85 108.98 C 100.19 107.61 101.52 106.25 102.87 104.89 C 103.17 106.12 103.46 107.34 103.73 108.57 C 102.47 109.58 101.23 110.60 99.93 111.54 C 100.02 111.00 100.19 109.90 100.28 109.35 C 98.94 109.98 97.61 110.61 96.29 111.25 C 96.41 111.86 96.66 113.06 96.79 113.66 C 96.92 114.29 97.17 115.56 97.30 116.19 C 96.61 116.22 95.24 116.27 94.55 116.30 C 94.96 111.57 96.48 107.04 96.94 102.32 C 93.38 102.21 89.73 102.58 86.24 101.71 C 84.79 99.23 85.05 96.19 84.60 93.45 Z" />
</g>
<g id="#6483b0ff">
<path fill="#6483b0" opacity="1.00" d=" M 144.15 97.55 C 145.12 96.37 145.83 95.00 146.54 93.66 C 146.64 96.99 146.48 100.32 146.54 103.65 L 145.84 104.00 C 141.82 106.30 136.99 104.77 132.61 105.31 C 131.36 107.37 130.11 109.43 128.64 111.35 C 129.25 107.26 126.39 102.04 129.71 98.79 C 134.24 96.79 139.48 98.97 144.15 97.55 Z" />
</g>
<g id="#5276adff">
<path fill="#5276ad" opacity="1.00" d=" M 114.42 97.75 C 118.16 102.10 121.19 107.15 125.70 110.78 C 123.20 112.35 120.67 113.87 118.16 115.42 C 122.16 116.12 126.04 114.38 128.64 111.35 C 130.11 109.43 131.36 107.37 132.61 105.31 C 136.99 104.77 141.82 106.30 145.84 104.00 C 145.43 110.27 141.23 116.20 135.20 118.19 C 128.35 120.54 121.01 118.64 114.54 116.02 C 114.14 109.94 114.56 103.84 114.42 97.75 Z" />
</g>
<g id="#acc2ddff">
<path fill="#acc2dd" opacity="1.00" d=" M 124.15 100.43 C 127.46 100.71 122.50 103.36 124.15 100.43 Z" />
</g>
<g id="#5175acff">
<path fill="#5175ac" opacity="1.00" d=" M 56.90 107.94 C 61.14 103.31 67.90 106.60 72.91 103.74 C 72.93 106.48 73.02 109.22 73.20 111.95 C 66.31 116.76 56.87 121.00 48.90 116.01 C 50.84 115.78 52.78 115.49 54.71 115.21 C 54.30 112.54 54.24 109.50 56.90 107.94 Z" />
</g>
<g id="#a9c1deff">
<path fill="#a9c1de" opacity="1.00" d=" M 122.90 103.19 C 123.80 103.63 124.63 104.18 125.39 104.84 C 125.43 105.36 125.52 106.42 125.57 106.95 C 123.47 107.00 122.77 104.95 122.90 103.19 Z" />
</g>
<g id="#3163acff">
<path fill="#3163ac" opacity="1.00" d=" M 155.26 110.14 C 156.40 108.62 157.70 107.24 159.01 105.87 C 158.16 113.25 154.98 120.09 151.74 126.68 C 148.13 131.13 144.53 135.66 139.90 139.09 C 139.82 137.75 139.75 136.40 139.73 135.06 L 139.74 133.83 C 137.09 135.42 134.39 136.92 131.62 138.28 C 131.65 137.10 131.68 135.93 131.72 134.76 C 125.71 132.60 119.27 132.11 112.93 132.05 C 108.01 131.92 103.96 136.21 98.92 135.10 C 94.60 134.06 90.57 131.97 86.09 131.49 C 85.27 128.67 85.13 125.72 85.04 122.80 C 88.21 127.21 93.03 130.39 98.18 132.00 C 99.79 132.10 101.39 132.15 103.00 132.16 C 105.40 132.03 106.79 129.94 108.31 128.37 C 112.37 128.16 116.45 127.82 120.35 126.61 C 126.34 128.57 132.99 129.07 139.01 126.92 C 146.74 124.34 152.41 117.59 155.26 110.14 Z" />
</g>
<g id="#a9c1dfff">
<path fill="#a9c1df" opacity="1.00" d=" M 127.20 107.38 C 130.53 107.49 125.70 110.38 127.20 107.38 Z" />
</g>
<g id="#8faad0ff">
<path fill="#8faad0" opacity="1.00" d=" M 51.14 108.38 C 52.49 108.59 52.71 109.29 51.80 110.51 C 50.46 110.30 50.24 109.59 51.14 108.38 Z" />
</g>
<g id="#416cadff">
<path fill="#416cad" opacity="1.00" d=" M 103.73 108.57 L 103.80 109.26 C 103.70 115.03 103.85 120.80 103.77 126.57 C 106.95 126.63 110.13 126.61 113.31 126.60 C 113.61 125.98 114.21 124.74 114.51 124.12 C 116.45 124.96 118.38 125.84 120.35 126.61 C 116.45 127.82 112.37 128.16 108.31 128.37 C 106.79 129.94 105.40 132.03 103.00 132.16 C 100.78 129.41 97.42 128.12 94.43 126.43 C 95.14 124.15 95.85 121.87 96.80 119.68 C 97.83 116.96 100.65 115.66 102.35 113.44 C 103.08 111.91 103.30 110.20 103.73 108.57 Z" />
</g>
<g id="#93afd4ff">
<path fill="#93afd4" opacity="1.00" d=" M 96.29 111.25 C 97.61 110.61 98.94 109.98 100.28 109.35 C 100.19 109.90 100.02 111.00 99.93 111.54 C 98.90 112.28 97.85 112.98 96.79 113.66 C 96.66 113.06 96.41 111.86 96.29 111.25 Z" />
</g>
<g id="#376ebcff">
<path fill="#376ebc" opacity="1.00" d=" M 36.45 125.59 C 35.05 122.30 32.98 118.90 33.92 115.18 C 35.30 117.61 36.88 119.94 38.62 122.13 C 40.15 128.34 45.40 132.81 49.80 137.12 C 52.71 135.91 54.89 138.42 57.13 139.84 C 62.30 143.30 68.08 145.71 73.80 148.11 L 73.94 148.49 C 74.23 148.94 74.81 149.84 75.10 150.29 C 80.43 150.57 85.80 150.14 91.08 151.04 C 97.77 152.18 104.53 150.83 111.00 149.14 C 116.36 147.69 121.89 146.55 126.80 143.85 C 131.36 141.35 136.42 139.25 139.73 135.06 C 139.75 136.40 139.82 137.75 139.90 139.09 C 144.53 135.66 148.13 131.13 151.74 126.68 C 153.38 126.08 154.87 125.15 156.14 123.95 C 154.41 129.02 151.49 133.52 148.56 137.96 C 140.44 147.96 128.82 154.71 116.60 158.44 C 106.46 161.71 95.64 160.89 85.16 160.50 C 69.09 158.51 53.95 150.17 43.30 138.06 C 40.96 133.93 38.36 129.94 36.45 125.59 Z" />
</g>
<g id="#97b9e4ff">
<path fill="#97b9e4" opacity="1.00" d=" M 169.19 116.77 C 169.71 116.73 170.75 116.66 171.26 116.62 C 170.83 120.94 169.64 125.13 168.82 129.38 C 165.00 137.03 162.68 146.92 154.14 150.74 C 151.53 150.64 148.91 150.46 146.30 150.35 C 149.62 147.48 152.65 144.30 155.36 140.85 C 158.34 137.59 161.10 134.13 163.52 130.44 C 166.26 126.27 167.52 121.40 169.19 116.77 Z" />
</g>
<g id="#90aed6ff">
<path fill="#90aed6" opacity="1.00" d=" M 87.31 118.02 C 88.53 117.14 89.27 117.37 89.53 118.69 C 88.31 119.56 87.57 119.33 87.31 118.02 Z" />
</g>
<g id="#255caeff">
<path fill="#255cae" opacity="1.00" d=" M 84.32 148.42 C 84.23 138.54 84.25 128.66 84.49 118.78 C 84.67 120.12 84.85 121.46 85.04 122.80 C 85.13 125.72 85.27 128.67 86.09 131.49 C 90.57 131.97 94.60 134.06 98.92 135.10 C 103.96 136.21 108.01 131.92 112.93 132.05 C 119.27 132.11 125.71 132.60 131.72 134.76 C 131.68 135.93 131.65 137.10 131.62 138.28 C 134.39 136.92 137.09 135.42 139.74 133.83 L 139.73 135.06 C 136.42 139.25 131.36 141.35 126.80 143.85 C 121.89 146.55 116.36 147.69 111.00 149.14 C 104.53 150.83 97.77 152.18 91.08 151.04 C 85.80 150.14 80.43 150.57 75.10 150.29 C 74.81 149.84 74.23 148.94 73.94 148.49 C 77.40 148.52 80.86 148.50 84.32 148.42 Z" />
</g>
<g id="#97b4dbff">
<path fill="#97b4db" opacity="1.00" d=" M 89.28 120.28 C 89.81 120.79 89.81 120.79 89.28 120.28 Z" />
</g>
<g id="#2d61adff">
<path fill="#2d61ad" opacity="1.00" d=" M 54.05 128.38 C 61.42 128.83 68.20 125.13 73.69 120.55 C 73.77 129.74 73.76 138.92 73.80 148.11 C 68.08 145.71 62.30 143.30 57.13 139.84 C 54.89 138.42 52.71 135.91 49.80 137.12 C 45.40 132.81 40.15 128.34 38.62 122.13 C 42.80 125.95 48.24 128.80 54.05 128.38 Z" />
</g>
<g id="#86a7d3ff">
<path fill="#86a7d3" opacity="1.00" d=" M 89.21 122.47 C 90.70 121.99 92.42 124.33 92.00 125.70 C 90.40 126.25 88.17 124.03 89.21 122.47 Z" />
</g>
<g id="#6b91c7ff">
<path fill="#6b91c7" opacity="1.00" d=" M 94.04 127.86 C 94.14 127.50 94.34 126.79 94.43 126.43 C 97.42 128.12 100.78 129.41 103.00 132.16 C 101.39 132.15 99.79 132.10 98.18 132.00 C 96.80 130.62 95.38 129.28 94.04 127.86 Z" />
</g>
<g id="#eef5fcff">
<path fill="#eef5fc" opacity="1.00" d=" M 146.30 150.35 C 148.91 150.46 151.53 150.64 154.14 150.74 C 153.18 151.36 152.23 151.99 151.29 152.63 C 153.51 154.31 155.58 156.25 156.66 158.88 C 150.99 163.13 145.66 167.86 139.55 171.51 L 139.09 170.26 C 139.72 168.64 140.44 167.07 141.05 165.44 C 142.77 160.43 142.84 154.62 146.30 150.35 Z" />
</g>
</svg>
