<?xml version="1.0" encoding="UTF-8" ?>
<!DOCTYPE svg PUBLIC "-//W3C//DTD SVG 1.1//EN" "http://www.w3.org/Graphics/SVG/1.1/DTD/svg11.dtd">
<svg width="128pt" height="128pt" viewBox="0 0 128 128" version="1.1" xmlns="http://www.w3.org/2000/svg">
<g id="#0d2ad7ff">
<path fill="#0d2ad7" opacity="1.00" d=" M 95.77 0.68 C 99.75 0.81 104.24 2.32 107.03 5.16 C 105.19 4.71 103.34 4.30 101.56 3.67 C 100.08 3.11 98.59 2.45 96.98 2.44 C 96.74 3.59 96.51 4.74 96.27 5.89 C 98.15 6.61 100.05 7.29 101.83 8.25 C 103.19 9.66 104.26 11.32 105.25 13.01 C 102.19 10.42 98.72 8.35 94.88 7.16 C 94.90 6.37 94.94 4.79 94.96 4.00 C 95.35 2.92 95.62 1.82 95.77 0.68 Z" />
<path fill="#0d2ad7" opacity="1.00" d=" M 65.23 22.28 C 67.13 18.53 66.73 14.15 68.50 10.40 C 74.60 10.62 80.69 10.45 86.79 10.51 C 86.67 12.06 86.53 13.61 86.35 15.15 C 81.98 27.37 79.51 40.18 75.75 52.59 C 74.71 48.62 77.06 44.95 77.38 41.05 C 78.18 33.43 81.45 26.30 81.95 18.65 C 82.51 17.08 83.04 15.51 83.54 13.92 L 83.93 12.79 C 79.24 12.75 74.55 12.77 69.86 12.76 C 69.85 12.61 69.82 12.31 69.81 12.15 C 69.61 15.68 68.99 19.17 68.05 22.57 C 64.32 29.90 63.90 38.66 59.11 45.49 C 60.70 37.65 63.07 29.98 65.23 22.28 Z" />
<path fill="#0d2ad7" opacity="1.00" d=" M 88.43 38.05 C 87.84 36.06 90.15 36.12 91.42 36.32 C 96.16 36.37 100.89 36.40 105.63 36.29 C 106.02 36.43 106.81 36.71 107.20 36.84 C 107.40 42.63 107.04 48.41 107.17 54.20 C 106.98 54.74 106.60 55.82 106.41 56.35 C 105.02 50.45 106.14 44.30 105.51 38.29 C 100.43 38.28 95.35 38.32 90.27 38.25 C 90.42 44.69 90.64 51.46 88.32 57.56 C 88.96 51.08 89.09 44.53 88.43 38.05 Z" />
</g>
<g id="#ddecffff">
<path fill="#ddecff" opacity="1.00" d=" M 96.98 2.44 C 98.59 2.45 100.08 3.11 101.56 3.67 C 107.58 6.76 112.57 11.72 115.38 17.90 C 114.43 19.86 113.48 21.82 112.90 23.93 C 111.95 17.37 107.75 11.27 101.83 8.25 C 100.05 7.29 98.15 6.61 96.27 5.89 C 96.51 4.74 96.74 3.59 96.98 2.44 Z" />
</g>
<g id="#2769faff">
<path fill="#2769fa" opacity="1.00" d=" M 101.56 3.67 C 103.34 4.30 105.19 4.71 107.03 5.16 C 112.09 8.00 115.61 13.34 117.57 18.74 C 118.01 20.28 118.34 21.86 118.67 23.43 C 118.82 25.28 118.85 27.14 118.77 29.00 L 118.68 29.27 C 116.63 29.20 114.58 29.25 112.54 29.39 C 111.32 25.45 111.27 21.03 108.69 17.51 C 107.74 15.87 106.51 14.42 105.25 13.01 C 104.26 11.32 103.19 9.66 101.83 8.25 C 107.75 11.27 111.95 17.37 112.90 23.93 C 113.12 25.44 113.38 26.95 113.63 28.46 C 115.08 28.44 116.46 28.13 117.77 27.54 C 117.26 24.27 116.59 21.00 115.38 17.90 C 112.57 11.72 107.58 6.76 101.56 3.67 Z" />
<path fill="#2769fa" opacity="1.00" d=" M 81.51 19.87 C 81.62 19.56 81.84 18.95 81.95 18.65 C 81.45 26.30 78.18 33.43 77.38 41.05 C 77.06 44.95 74.71 48.62 75.75 52.59 C 72.61 65.05 68.90 77.40 66.11 89.93 C 67.16 89.54 68.21 89.15 69.24 88.71 C 70.44 88.08 71.60 87.38 72.70 86.58 C 81.88 79.69 86.08 68.41 88.32 57.56 C 90.64 51.46 90.42 44.69 90.27 38.25 C 95.35 38.32 100.43 38.28 105.51 38.29 C 106.14 44.30 105.02 50.45 106.41 56.35 C 106.12 63.99 103.80 71.35 101.20 78.48 C 99.14 83.05 96.74 87.51 93.53 91.39 L 92.48 89.65 C 96.69 84.22 99.18 77.78 101.42 71.36 C 102.49 69.42 102.98 67.23 103.38 65.06 C 105.12 56.61 104.71 47.91 104.74 39.34 L 103.97 39.29 C 99.76 39.21 95.56 39.09 91.36 39.31 C 91.46 40.18 91.66 41.93 91.76 42.80 C 91.83 46.81 91.77 50.83 91.16 54.80 C 90.37 57.38 89.62 59.97 89.03 62.60 C 88.72 63.86 88.42 65.11 88.11 66.36 C 87.45 68.20 86.81 70.05 86.35 71.95 C 82.28 81.71 74.21 90.65 63.36 92.44 C 64.42 88.71 65.13 84.90 66.30 81.20 C 67.98 76.28 68.88 71.13 70.24 66.12 C 71.73 59.01 73.89 52.02 74.80 44.80 C 75.71 41.45 76.62 38.09 77.36 34.70 C 78.58 29.71 79.95 24.76 81.51 19.87 Z" />
<path fill="#2769fa" opacity="1.00" d=" M 105.18 21.62 L 106.82 21.96 L 107.16 22.75 C 107.51 24.90 107.69 27.08 107.76 29.26 C 105.49 29.26 103.22 29.23 100.96 29.16 C 100.81 27.79 100.60 26.42 100.34 25.07 L 101.00 23.30 C 101.73 24.74 102.18 26.30 102.60 27.86 C 103.96 27.77 105.33 27.68 106.69 27.60 C 106.12 25.62 105.63 23.63 105.18 21.62 Z" />
<path fill="#2769fa" opacity="1.00" d=" M 59.11 45.49 C 63.90 38.66 64.32 29.90 68.05 22.57 C 67.46 25.45 66.81 28.32 66.02 31.16 C 65.06 34.56 64.15 37.97 63.14 41.35 C 62.36 43.80 61.63 46.27 60.97 48.76 C 58.86 53.81 57.36 59.08 55.90 64.34 C 54.60 68.85 53.00 73.27 52.00 77.86 C 50.97 82.74 49.21 87.43 48.11 92.30 C 41.18 92.21 35.95 85.17 37.46 78.48 C 38.19 76.22 38.77 73.91 39.57 71.66 C 39.96 70.69 40.40 69.75 40.80 68.78 C 40.53 71.25 40.38 73.73 40.02 76.19 C 39.15 79.09 38.69 82.35 40.24 85.11 C 41.49 87.71 43.91 89.36 46.45 90.53 C 51.09 75.65 54.46 60.34 59.11 45.49 Z" />
<path fill="#2769fa" opacity="1.00" d=" M 89.84 24.99 L 90.41 24.52 L 91.45 24.70 C 91.42 25.04 91.35 25.72 91.31 26.06 L 90.17 25.71 L 89.84 24.99 Z" />
</g>
<g id="#00000057">
<path fill="#000000" opacity="0.34" d=" M 96.68 10.20 C 95.86 8.19 92.73 6.49 94.96 4.00 C 94.94 4.79 94.90 6.37 94.88 7.16 C 98.72 8.35 102.19 10.42 105.25 13.01 C 106.51 14.42 107.74 15.87 108.69 17.51 C 106.88 17.68 105.59 16.35 104.24 15.40 C 104.17 15.77 104.03 16.51 103.96 16.88 C 101.16 13.94 97.48 11.42 93.24 11.60 C 94.45 11.30 95.58 10.78 96.68 10.20 Z" />
</g>
<g id="#03098ec3">
<path fill="#03098e" opacity="0.76" d=" M 67.05 9.85 C 73.74 9.38 80.48 9.70 87.19 9.68 C 87.71 11.08 87.69 12.43 87.13 13.72 L 86.84 14.24 L 86.35 15.15 C 86.53 13.61 86.67 12.06 86.79 10.51 C 80.69 10.45 74.60 10.62 68.50 10.40 C 66.73 14.15 67.13 18.53 65.23 22.28 C 65.87 18.14 66.80 14.04 67.05 9.85 Z" />
</g>
<g id="#c0d0fcff">
<path fill="#c0d0fc" opacity="1.00" d=" M 69.81 12.15 C 69.82 12.31 69.85 12.61 69.86 12.76 C 69.98 14.18 70.12 15.59 70.26 17.00 C 74.69 15.98 79.02 14.53 83.54 13.92 C 83.04 15.51 82.51 17.08 81.95 18.65 C 81.84 18.95 81.62 19.56 81.51 19.87 C 77.33 20.71 75.60 25.12 72.02 27.05 C 69.77 28.06 68.76 31.58 66.02 31.16 C 66.81 28.32 67.46 25.45 68.05 22.57 C 68.99 19.17 69.61 15.68 69.81 12.15 Z" />
</g>
<g id="#123dddff">
<path fill="#123ddd" opacity="1.00" d=" M 93.24 11.60 C 97.48 11.42 101.16 13.94 103.96 16.88 C 105.17 18.42 106.17 20.11 106.82 21.96 L 105.18 21.62 L 105.08 21.26 L 105.73 21.40 L 104.27 20.82 L 104.63 20.58 C 102.30 16.96 98.78 14.32 94.71 12.95 C 94.34 14.20 94.00 15.46 93.71 16.74 C 96.83 17.97 99.73 20.07 101.00 23.30 L 100.34 25.07 C 98.90 22.56 97.00 20.26 94.41 18.88 C 93.86 18.71 92.75 18.37 92.20 18.20 C 91.98 15.94 92.65 13.76 93.24 11.60 Z" />
<path fill="#123ddd" opacity="1.00" d=" M 15.18 38.89 C 22.83 35.19 31.68 33.02 40.09 35.15 C 44.02 36.09 47.55 39.42 47.77 43.60 C 47.78 47.70 48.03 51.93 46.55 55.83 C 44.27 62.58 42.36 69.45 40.02 76.19 C 40.38 73.73 40.53 71.25 40.80 68.78 C 41.00 68.15 41.41 66.89 41.61 66.26 C 43.24 59.23 46.51 52.35 45.68 44.97 C 45.73 42.45 44.31 39.94 41.87 39.06 C 35.96 36.05 28.70 37.02 22.59 38.96 C 21.00 39.45 19.52 40.22 18.05 40.99 C 18.80 44.72 20.12 48.30 21.62 51.78 C 24.15 50.16 27.98 47.18 30.83 49.58 C 30.87 52.78 30.33 55.96 28.80 58.81 C 27.49 60.88 26.16 62.96 25.11 65.19 C 25.64 63.28 26.22 61.39 26.82 59.51 C 27.05 58.80 27.50 57.39 27.73 56.68 C 28.32 54.90 28.94 53.08 28.91 51.18 C 26.53 51.86 24.37 53.09 22.26 54.36 C 21.61 54.40 20.32 54.49 19.67 54.54 C 18.74 52.22 17.85 49.88 16.96 47.55 C 15.93 44.77 14.70 41.93 15.18 38.89 Z" />
</g>
<g id="#d9e2fbff">
<path fill="#d9e2fb" opacity="1.00" d=" M 69.86 12.76 C 74.55 12.77 79.24 12.75 83.93 12.79 L 83.54 13.92 C 79.02 14.53 74.69 15.98 70.26 17.00 C 70.12 15.59 69.98 14.18 69.86 12.76 Z" />
</g>
<g id="#00010230">
<path fill="#000102" opacity="0.19" d=" M 87.13 13.72 C 87.57 13.59 88.44 13.32 88.87 13.18 C 92.26 16.71 88.73 21.19 87.84 25.00 C 83.20 42.01 78.72 59.07 74.12 76.09 C 73.26 79.50 71.48 83.03 72.70 86.58 C 71.60 87.38 70.44 88.08 69.24 88.71 C 69.51 86.32 69.91 83.94 70.60 81.64 C 76.67 60.16 81.67 38.36 88.36 17.07 C 87.98 16.36 87.22 14.95 86.84 14.24 L 87.13 13.72 Z" />
</g>
<g id="#d1eaffff">
<path fill="#d1eaff" opacity="1.00" d=" M 94.71 12.95 C 98.78 14.32 102.30 16.96 104.63 20.58 L 104.27 20.82 L 105.73 21.40 L 105.08 21.26 L 105.18 21.62 C 105.63 23.63 106.12 25.62 106.69 27.60 C 105.33 27.68 103.96 27.77 102.60 27.86 C 102.18 26.30 101.73 24.74 101.00 23.30 C 99.73 20.07 96.83 17.97 93.71 16.74 C 94.00 15.46 94.34 14.20 94.71 12.95 Z" />
<path fill="#d1eaff" opacity="1.00" d=" M 92.59 23.79 C 94.08 24.54 94.79 26.00 95.03 27.59 C 93.91 27.58 92.78 27.57 91.66 27.56 C 91.57 27.19 91.40 26.44 91.31 26.06 C 91.35 25.72 91.42 25.04 91.45 24.70 L 92.59 23.79 Z" />
</g>
<g id="#00000062">
<path fill="#000000" opacity="0.38" d=" M 86.35 15.15 L 86.84 14.24 C 87.22 14.95 87.98 16.36 88.36 17.07 C 81.67 38.36 76.67 60.16 70.60 81.64 C 69.91 83.94 69.51 86.32 69.24 88.71 C 68.21 89.15 67.16 89.54 66.11 89.93 C 68.90 77.40 72.61 65.05 75.75 52.59 C 79.51 40.18 81.98 27.37 86.35 15.15 Z" />
</g>
<g id="#0000001d">
<path fill="#000000" opacity="0.11" d=" M 104.24 15.40 C 105.59 16.35 106.88 17.68 108.69 17.51 C 111.27 21.03 111.32 25.45 112.54 29.39 C 114.58 29.25 116.63 29.20 118.68 29.27 C 118.57 29.52 118.34 30.01 118.23 30.26 L 116.03 29.40 C 115.37 29.51 114.04 29.73 113.37 29.84 C 113.74 32.02 115.64 33.98 118.00 33.44 C 122.04 31.81 120.47 26.26 118.67 23.43 C 118.34 21.86 118.01 20.28 117.57 18.74 C 118.08 18.91 119.09 19.27 119.60 19.44 C 121.96 23.42 122.91 28.40 122.21 32.99 C 119.76 36.43 114.84 35.81 111.95 33.28 C 109.74 34.07 107.72 35.26 105.63 36.29 C 100.89 36.40 96.16 36.37 91.42 36.32 C 91.72 33.81 88.40 32.34 90.11 29.73 C 91.24 30.75 92.21 31.92 93.28 33.00 C 94.56 34.19 96.26 32.88 97.58 32.46 C 97.78 29.55 97.43 26.65 97.20 23.75 C 100.85 26.31 100.86 33.05 106.08 33.45 C 111.34 32.26 108.82 26.01 107.16 22.75 L 106.82 21.96 C 106.17 20.11 105.17 18.42 103.96 16.88 C 104.03 16.51 104.17 15.77 104.24 15.40 Z" />
</g>
<g id="#bdddffff">
<path fill="#bdddff" opacity="1.00" d=" M 115.38 17.90 C 116.59 21.00 117.26 24.27 117.77 27.54 C 116.46 28.13 115.08 28.44 113.63 28.46 C 113.38 26.95 113.12 25.44 112.90 23.93 C 113.48 21.82 114.43 19.86 115.38 17.90 Z" />
</g>
<g id="#00000069">
<path fill="#000000" opacity="0.41" d=" M 94.41 18.88 C 97.00 20.26 98.90 22.56 100.34 25.07 C 100.60 26.42 100.81 27.79 100.96 29.16 C 103.22 29.23 105.49 29.26 107.76 29.26 C 107.69 27.08 107.51 24.90 107.16 22.75 C 108.82 26.01 111.34 32.26 106.08 33.45 C 100.86 33.05 100.85 26.31 97.20 23.75 C 97.43 26.65 97.78 29.55 97.58 32.46 C 96.26 32.88 94.56 34.19 93.28 33.00 C 92.21 31.92 91.24 30.75 90.11 29.73 C 88.60 28.75 88.66 26.22 89.84 24.99 L 90.17 25.71 C 90.05 26.57 89.80 28.29 89.68 29.15 C 92.05 29.19 94.43 29.23 96.80 29.24 C 97.47 25.62 94.86 21.39 90.80 22.19 C 90.70 22.77 90.50 23.94 90.41 24.52 L 89.84 24.99 C 89.91 24.31 90.06 22.94 90.14 22.25 C 91.30 22.02 92.47 21.79 93.64 21.55 C 93.83 20.89 94.22 19.55 94.41 18.88 Z" />
</g>
<g id="#adc6ffff">
<path fill="#adc6ff" opacity="1.00" d=" M 72.02 27.05 C 75.60 25.12 77.33 20.71 81.51 19.87 C 79.95 24.76 78.58 29.71 77.36 34.70 C 76.43 34.68 75.49 34.66 74.55 34.65 C 71.17 37.43 67.78 41.03 63.14 41.35 C 64.15 37.97 65.06 34.56 66.02 31.16 C 68.76 31.58 69.77 28.06 72.02 27.05 Z" />
</g>
<g id="#1d68f3fd">
<path fill="#1d68f3" opacity="1.00" d=" M 90.80 22.19 C 94.86 21.39 97.47 25.62 96.80 29.24 C 94.43 29.23 92.05 29.19 89.68 29.15 C 89.80 28.29 90.05 26.57 90.17 25.71 L 91.31 26.06 C 91.40 26.44 91.57 27.19 91.66 27.56 C 92.78 27.57 93.91 27.58 95.03 27.59 C 94.79 26.00 94.08 24.54 92.59 23.79 L 91.45 24.70 L 90.41 24.52 C 90.50 23.94 90.70 22.77 90.80 22.19 Z" />
</g>
<g id="#0102045e">
<path fill="#010204" opacity="0.37" d=" M 118.67 23.43 C 120.47 26.26 122.04 31.81 118.00 33.44 C 115.64 33.98 113.74 32.02 113.37 29.84 C 114.04 29.73 115.37 29.51 116.03 29.40 L 118.23 30.26 C 118.34 30.01 118.57 29.52 118.68 29.27 L 118.77 29.00 C 118.85 27.14 118.82 25.28 118.67 23.43 Z" />
</g>
<g id="#9abdffff">
<path fill="#9abdff" opacity="1.00" d=" M 74.55 34.65 C 75.49 34.66 76.43 34.68 77.36 34.70 C 76.62 38.09 75.71 41.45 74.80 44.80 C 72.92 49.93 71.91 55.31 70.45 60.57 C 66.33 61.57 62.07 61.30 57.87 61.27 C 58.95 57.11 60.32 53.02 60.97 48.76 C 61.63 46.27 62.36 43.80 63.14 41.35 C 67.78 41.03 71.17 37.43 74.55 34.65 Z" />
</g>
<g id="#b7cfffff">
<path fill="#b7cfff" opacity="1.00" d=" M 22.59 38.96 C 28.70 37.02 35.96 36.05 41.87 39.06 L 42.75 40.24 C 40.43 41.91 37.53 41.08 34.93 40.91 C 30.80 40.33 26.45 40.78 22.59 38.96 Z" />
</g>
<g id="#96baffff">
<path fill="#96baff" opacity="1.00" d=" M 18.05 40.99 C 19.52 40.22 21.00 39.45 22.59 38.96 C 26.45 40.78 30.80 40.33 34.93 40.91 C 37.53 41.08 40.43 41.91 42.75 40.24 C 47.44 46.25 43.80 54.32 41.33 60.51 C 37.78 59.99 34.21 59.55 30.67 58.90 C 31.22 56.29 31.82 53.68 32.14 51.02 C 31.81 50.66 31.16 49.94 30.83 49.58 C 27.98 47.18 24.15 50.16 21.62 51.78 C 20.12 48.30 18.80 44.72 18.05 40.99 Z" />
</g>
<g id="#4990ffff">
<path fill="#4990ff" opacity="1.00" d=" M 41.87 39.06 C 44.31 39.94 45.73 42.45 45.68 44.97 C 46.51 52.35 43.24 59.23 41.61 66.26 C 41.39 65.46 40.97 63.87 40.76 63.07 C 39.66 64.54 38.65 66.07 37.38 67.40 C 35.02 68.53 32.27 68.02 29.77 67.67 C 29.09 66.19 28.39 64.72 27.68 63.26 C 28.07 61.78 28.41 60.28 28.80 58.81 C 30.33 55.96 30.87 52.78 30.83 49.58 C 31.16 49.94 31.81 50.66 32.14 51.02 C 31.82 53.68 31.22 56.29 30.67 58.90 C 34.21 59.55 37.78 59.99 41.33 60.51 C 43.80 54.32 47.44 46.25 42.75 40.24 L 41.87 39.06 Z" />
</g>
<g id="#acc8ffff">
<path fill="#acc8ff" opacity="1.00" d=" M 91.36 39.31 C 95.56 39.09 99.76 39.21 103.97 39.29 C 103.95 39.88 103.92 41.05 103.91 41.63 C 99.82 41.48 95.81 42.43 91.76 42.80 C 91.66 41.93 91.46 40.18 91.36 39.31 Z" />
</g>
<g id="#438affff">
<path fill="#438aff" opacity="1.00" d=" M 103.97 39.29 L 104.74 39.34 C 104.71 47.91 105.12 56.61 103.38 65.06 C 103.26 64.34 103.02 62.90 102.90 62.18 C 99.73 65.25 93.12 67.17 90.41 62.68 C 90.07 62.66 89.37 62.62 89.03 62.60 C 89.62 59.97 90.37 57.38 91.16 54.80 C 91.14 55.68 91.11 57.45 91.09 58.33 C 95.35 57.89 99.46 56.65 103.52 55.37 C 104.09 50.81 103.76 46.21 103.91 41.63 C 103.92 41.05 103.95 39.88 103.97 39.29 Z" />
</g>
<g id="#7daaffff">
<path fill="#7daaff" opacity="1.00" d=" M 91.76 42.80 C 95.81 42.43 99.82 41.48 103.91 41.63 C 103.76 46.21 104.09 50.81 103.52 55.37 C 99.46 56.65 95.35 57.89 91.09 58.33 C 91.11 57.45 91.14 55.68 91.16 54.80 C 91.77 50.83 91.83 46.81 91.76 42.80 Z" />
</g>
<g id="#00000050">
<path fill="#000000" opacity="0.31" d=" M 108.08 42.07 C 108.45 42.18 109.18 42.41 109.55 42.53 C 109.59 50.41 110.03 58.39 108.43 66.15 C 107.93 71.45 105.32 76.16 103.92 81.23 C 101.88 88.00 97.43 93.62 93.29 99.22 C 90.92 101.69 88.82 104.75 85.51 106.03 C 80.13 108.30 74.79 110.97 68.91 111.71 C 67.18 112.23 64.84 111.99 63.74 113.70 C 61.91 116.85 63.14 121.34 59.81 123.67 C 57.87 126.08 54.63 125.24 51.95 125.36 C 48.52 125.18 44.86 125.96 41.65 124.38 C 40.03 123.38 39.82 121.29 39.13 119.69 C 39.53 119.74 40.34 119.84 40.75 119.89 C 42.38 120.97 43.77 122.89 45.93 122.75 C 49.59 122.90 53.26 122.94 56.91 122.63 C 58.59 122.78 59.04 121.05 59.14 119.74 C 59.37 116.91 59.89 114.13 60.37 111.34 C 65.75 109.38 71.59 109.22 76.91 107.08 C 87.35 103.05 95.94 94.56 100.37 84.31 C 101.29 82.50 101.17 80.44 101.20 78.48 C 103.80 71.35 106.12 63.99 106.41 56.35 C 106.60 55.82 106.98 54.74 107.17 54.20 C 109.04 50.50 107.32 46.06 108.08 42.07 Z" />
</g>
<g id="#00000059">
<path fill="#000000" opacity="0.35" d=" M 47.77 43.60 C 51.05 46.23 50.55 51.24 50.26 55.03 C 47.71 65.07 44.19 74.83 41.11 84.71 L 40.24 85.11 C 38.69 82.35 39.15 79.09 40.02 76.19 C 42.36 69.45 44.27 62.58 46.55 55.83 C 48.03 51.93 47.78 47.70 47.77 43.60 Z" />
</g>
<g id="#4d93ffff">
<path fill="#4d93ff" opacity="1.00" d=" M 70.45 60.57 C 71.91 55.31 72.92 49.93 74.80 44.80 C 73.89 52.02 71.73 59.01 70.24 66.12 C 70.07 65.59 69.71 64.52 69.54 63.99 C 67.88 66.29 66.92 69.12 64.90 71.12 C 62.38 71.68 59.79 71.35 57.27 71.02 C 57.27 68.71 57.94 66.05 55.90 64.34 C 57.36 59.08 58.86 53.81 60.97 48.76 C 60.32 53.02 58.95 57.11 57.87 61.27 C 62.07 61.30 66.33 61.57 70.45 60.57 Z" />
</g>
<g id="#0000003f">
<path fill="#000000" opacity="0.25" d=" M 16.96 47.55 C 17.85 49.88 18.74 52.22 19.67 54.54 C 20.32 54.49 21.61 54.40 22.26 54.36 C 22.40 55.04 22.53 55.72 22.67 56.40 C 24.36 56.49 26.04 56.58 27.73 56.68 C 27.50 57.39 27.05 58.80 26.82 59.51 C 24.87 59.36 22.63 60.06 20.83 59.18 C 18.14 56.50 17.74 52.43 16.64 48.96 L 16.96 47.55 Z" />
<path fill="#000000" opacity="0.25" d=" M 22.98 91.71 L 23.28 92.41 C 24.55 95.56 26.55 98.35 28.89 100.79 C 31.14 105.91 36.43 108.47 41.48 110.04 C 41.28 110.65 40.86 111.87 40.66 112.48 C 31.70 109.38 23.17 101.74 22.98 91.71 Z" />
</g>
<g id="#02051280">
<path fill="#020512" opacity="0.50" d=" M 22.26 54.36 C 24.37 53.09 26.53 51.86 28.91 51.18 C 28.94 53.08 28.32 54.90 27.73 56.68 C 26.04 56.58 24.36 56.49 22.67 56.40 C 22.53 55.72 22.40 55.04 22.26 54.36 Z" />
</g>
<g id="#285cdaec">
<path fill="#285cda" opacity="0.93" d=" M 25.11 65.19 C 26.16 62.96 27.49 60.88 28.80 58.81 C 28.41 60.28 28.07 61.78 27.68 63.26 C 27.41 64.28 27.13 65.30 26.83 66.31 C 24.51 73.34 21.12 81.36 24.31 88.60 C 24.34 88.86 24.40 89.38 24.43 89.64 C 24.14 90.33 23.57 91.72 23.28 92.41 L 22.98 91.71 C 19.88 83.00 22.05 73.59 25.11 65.19 Z" />
</g>
<g id="#569affff">
<path fill="#569aff" opacity="1.00" d=" M 89.03 62.60 C 89.37 62.62 90.07 62.66 90.41 62.68 C 93.12 67.17 99.73 65.25 102.90 62.18 C 103.02 62.90 103.26 64.34 103.38 65.06 C 102.98 67.23 102.49 69.42 101.42 71.36 C 99.86 71.66 99.52 73.27 98.89 74.46 C 95.61 74.34 92.32 74.15 89.05 73.80 C 88.66 71.34 90.67 68.03 88.11 66.36 C 88.42 65.11 88.72 63.86 89.03 62.60 Z" />
</g>
<g id="#5a9dffff">
<path fill="#5a9dff" opacity="1.00" d=" M 37.38 67.40 C 38.65 66.07 39.66 64.54 40.76 63.07 C 40.97 63.87 41.39 65.46 41.61 66.26 C 41.41 66.89 41.00 68.15 40.80 68.78 C 40.40 69.75 39.96 70.69 39.57 71.66 C 37.49 70.74 36.76 73.35 35.51 74.44 C 33.65 77.22 29.89 76.28 27.04 76.59 C 27.25 73.17 28.19 69.61 26.83 66.31 C 27.13 65.30 27.41 64.28 27.68 63.26 C 28.39 64.72 29.09 66.19 29.77 67.67 C 32.27 68.02 35.02 68.53 37.38 67.40 Z" />
</g>
<g id="#6aaaffff">
<path fill="#6aaaff" opacity="1.00" d=" M 64.90 71.12 C 66.92 69.12 67.88 66.29 69.54 63.99 C 69.71 64.52 70.07 65.59 70.24 66.12 C 68.88 71.13 67.98 76.28 66.30 81.20 C 66.09 80.38 65.68 78.73 65.48 77.91 C 64.68 80.00 63.91 82.11 63.25 84.25 C 60.05 84.59 56.87 85.03 53.69 85.43 C 53.35 85.06 52.69 84.31 52.36 83.94 C 52.85 81.74 53.31 79.53 53.72 77.31 C 53.29 77.45 52.43 77.72 52.00 77.86 C 53.00 73.27 54.60 68.85 55.90 64.34 C 57.94 66.05 57.27 68.71 57.27 71.02 C 59.79 71.35 62.38 71.68 64.90 71.12 Z" />
</g>
<g id="#76b3ffff">
<path fill="#76b3ff" opacity="1.00" d=" M 24.31 88.60 C 21.12 81.36 24.51 73.34 26.83 66.31 C 28.19 69.61 27.25 73.17 27.04 76.59 C 29.89 76.28 33.65 77.22 35.51 74.44 C 36.76 73.35 37.49 70.74 39.57 71.66 C 38.77 73.91 38.19 76.22 37.46 78.48 C 34.32 82.28 36.13 87.50 38.68 91.11 C 34.88 91.83 31.01 91.61 27.18 91.54 C 24.70 87.75 25.48 83.07 24.39 78.86 C 24.59 82.10 24.67 85.36 24.31 88.60 Z" />
</g>
<g id="#6aabffff">
<path fill="#6aabff" opacity="1.00" d=" M 88.11 66.36 C 90.67 68.03 88.66 71.34 89.05 73.80 C 92.32 74.15 95.61 74.34 98.89 74.46 C 97.63 77.25 96.11 79.91 94.59 82.57 C 90.95 82.42 85.71 84.79 83.34 81.01 C 85.11 78.59 86.22 75.79 87.15 72.97 C 86.95 72.71 86.55 72.20 86.35 71.95 C 86.81 70.05 87.45 68.20 88.11 66.36 Z" />
</g>
<g id="#b6daffff">
<path fill="#b6daff" opacity="1.00" d=" M 98.89 74.46 C 99.52 73.27 99.86 71.66 101.42 71.36 C 99.18 77.78 96.69 84.22 92.48 89.65 C 91.16 91.14 89.77 92.57 88.31 93.93 C 87.83 93.82 86.85 93.59 86.37 93.47 C 86.58 92.95 87.02 91.89 87.24 91.37 C 90.16 88.86 92.76 85.98 94.59 82.57 C 96.11 79.91 97.63 77.25 98.89 74.46 Z" />
<path fill="#b6daff" opacity="1.00" d=" M 86.35 71.95 C 86.55 72.20 86.95 72.71 87.15 72.97 C 86.22 75.79 85.11 78.59 83.34 81.01 C 80.63 84.63 78.01 88.44 74.29 91.12 C 69.88 92.89 65.58 95.36 60.73 95.66 C 60.51 95.31 60.07 94.62 59.84 94.28 C 61.08 90.97 62.26 87.64 63.25 84.25 C 63.91 82.11 64.68 80.00 65.48 77.91 C 65.68 78.73 66.09 80.38 66.30 81.20 C 65.13 84.90 64.42 88.71 63.36 92.44 C 74.21 90.65 82.28 81.71 86.35 71.95 Z" />
</g>
<g id="#b8dcffff">
<path fill="#b8dcff" opacity="1.00" d=" M 52.00 77.86 C 52.43 77.72 53.29 77.45 53.72 77.31 C 53.31 79.53 52.85 81.74 52.36 83.94 C 51.74 86.56 51.38 89.23 50.97 91.89 C 50.52 92.88 50.05 93.86 49.57 94.84 C 45.53 95.20 41.91 93.28 38.68 91.11 C 36.13 87.50 34.32 82.28 37.46 78.48 C 35.95 85.17 41.18 92.21 48.11 92.30 C 49.21 87.43 50.97 82.74 52.00 77.86 Z" />
</g>
<g id="#dff8ffff">
<path fill="#dff8ff" opacity="1.00" d=" M 24.39 78.86 C 25.48 83.07 24.70 87.75 27.18 91.54 C 28.50 94.07 30.32 96.31 32.40 98.25 C 35.79 101.47 40.45 103.11 45.07 103.25 C 45.84 104.00 46.91 104.74 46.62 106.00 C 46.32 109.12 45.23 112.10 44.94 115.22 C 47.94 115.55 50.99 115.77 54.00 115.36 C 56.39 113.01 56.25 109.18 57.19 106.10 C 57.56 105.26 57.96 104.42 58.38 103.60 C 65.36 103.21 72.57 102.13 78.62 98.39 C 81.32 96.95 83.96 95.38 86.37 93.47 C 86.85 93.59 87.83 93.82 88.31 93.93 C 80.68 101.31 70.25 105.14 59.76 105.80 C 58.69 109.99 58.10 114.28 57.38 118.55 C 51.64 118.51 45.90 118.52 40.16 118.54 C 42.11 114.45 43.41 110.11 44.67 105.77 C 35.50 104.77 27.19 98.56 24.43 89.64 C 24.40 89.38 24.34 88.86 24.31 88.60 C 24.67 85.36 24.59 82.10 24.39 78.86 Z" />
</g>
<g id="#00000076">
<path fill="#000000" opacity="0.46" d=" M 93.53 91.39 C 96.74 87.51 99.14 83.05 101.20 78.48 C 101.17 80.44 101.29 82.50 100.37 84.31 C 95.94 94.56 87.35 103.05 76.91 107.08 C 71.59 109.22 65.75 109.38 60.37 111.34 C 60.61 110.03 60.91 108.73 61.25 107.44 C 73.59 106.67 85.76 101.17 93.53 91.39 Z" />
<path fill="#000000" opacity="0.46" d=" M 28.89 100.79 C 32.65 104.29 37.44 106.21 42.35 107.39 C 42.13 108.06 41.70 109.38 41.48 110.04 C 36.43 108.47 31.14 105.91 28.89 100.79 Z" />
</g>
<g id="#7cb9ffff">
<path fill="#7cb9ff" opacity="1.00" d=" M 74.29 91.12 C 78.01 88.44 80.63 84.63 83.34 81.01 C 85.71 84.79 90.95 82.42 94.59 82.57 C 92.76 85.98 90.16 88.86 87.24 91.37 C 82.94 90.72 78.61 91.17 74.29 91.12 Z" />
</g>
<g id="#7fbcffff">
<path fill="#7fbcff" opacity="1.00" d=" M 50.97 91.89 C 51.38 89.23 51.74 86.56 52.36 83.94 C 52.69 84.31 53.35 85.06 53.69 85.43 C 56.87 85.03 60.05 84.59 63.25 84.25 C 62.26 87.64 61.08 90.97 59.84 94.28 C 59.22 93.51 58.59 92.75 57.94 92.01 C 55.62 91.90 53.30 91.85 50.97 91.89 Z" />
</g>
<g id="#2e78f0f5">
<path fill="#2e78f0" opacity="0.96" d=" M 24.43 89.64 C 27.19 98.56 35.50 104.77 44.67 105.77 C 43.41 110.11 42.11 114.45 40.16 118.54 C 45.90 118.52 51.64 118.51 57.38 118.55 C 58.10 114.28 58.69 109.99 59.76 105.80 C 70.25 105.14 80.68 101.31 88.31 93.93 C 89.77 92.57 91.16 91.14 92.48 89.65 L 93.53 91.39 C 85.76 101.17 73.59 106.67 61.25 107.44 C 60.91 108.73 60.61 110.03 60.37 111.34 C 59.89 114.13 59.37 116.91 59.14 119.74 C 53.01 119.96 46.88 119.73 40.75 119.89 C 40.34 119.84 39.53 119.74 39.13 119.69 L 38.61 119.64 C 38.23 117.01 39.83 114.84 40.66 112.48 C 40.86 111.87 41.28 110.65 41.48 110.04 C 41.70 109.38 42.13 108.06 42.35 107.39 C 37.44 106.21 32.65 104.29 28.89 100.79 C 26.55 98.35 24.55 95.56 23.28 92.41 C 23.57 91.72 24.14 90.33 24.43 89.64 Z" />
</g>
<g id="#8dc7ffff">
<path fill="#8dc7ff" opacity="1.00" d=" M 27.18 91.54 C 31.01 91.61 34.88 91.83 38.68 91.11 C 41.91 93.28 45.53 95.20 49.57 94.84 C 50.05 93.86 50.52 92.88 50.97 91.89 C 53.30 91.85 55.62 91.90 57.94 92.01 C 58.59 92.75 59.22 93.51 59.84 94.28 C 60.07 94.62 60.51 95.31 60.73 95.66 C 65.58 95.36 69.88 92.89 74.29 91.12 C 78.61 91.17 82.94 90.72 87.24 91.37 C 87.02 91.89 86.58 92.95 86.37 93.47 C 83.96 95.38 81.32 96.95 78.62 98.39 C 72.74 95.36 65.98 97.61 59.71 97.26 C 52.82 96.72 45.90 97.02 39.00 96.88 C 36.71 96.78 34.51 97.44 32.40 98.25 C 30.32 96.31 28.50 94.07 27.18 91.54 Z" />
</g>
<g id="#99d1ffff">
<path fill="#99d1ff" opacity="1.00" d=" M 32.40 98.25 C 34.51 97.44 36.71 96.78 39.00 96.88 C 45.90 97.02 52.82 96.72 59.71 97.26 C 65.98 97.61 72.74 95.36 78.62 98.39 C 72.57 102.13 65.36 103.21 58.38 103.60 C 57.96 104.42 57.56 105.26 57.19 106.10 C 54.54 106.21 51.88 106.22 49.25 105.84 C 48.48 105.01 47.71 104.18 46.90 103.40 C 46.45 103.36 45.53 103.29 45.07 103.25 C 40.45 103.11 35.79 101.47 32.40 98.25 Z" />
</g>
<g id="#b0e3ffff">
<path fill="#b0e3ff" opacity="1.00" d=" M 45.07 103.25 C 45.53 103.29 46.45 103.36 46.90 103.40 C 47.71 104.18 48.48 105.01 49.25 105.84 C 51.88 106.22 54.54 106.21 57.19 106.10 C 56.25 109.18 56.39 113.01 54.00 115.36 C 50.99 115.77 47.94 115.55 44.94 115.22 C 45.23 112.10 46.32 109.12 46.62 106.00 C 46.91 104.74 45.84 104.00 45.07 103.25 Z" />
</g>
<g id="#00000073">
<path fill="#000000" opacity="0.45" d=" M 40.75 119.89 C 46.88 119.73 53.01 119.96 59.14 119.74 C 59.04 121.05 58.59 122.78 56.91 122.63 C 53.26 122.94 49.59 122.90 45.93 122.75 C 43.77 122.89 42.38 120.97 40.75 119.89 Z" />
</g>
</svg>
